<?xml version="1.0" standalone="no"?>
<!DOCTYPE svg PUBLIC "-//W3C//DTD SVG 20010904//EN"
 "http://www.w3.org/TR/2001/REC-SVG-20010904/DTD/svg10.dtd">
<svg version="1.0" xmlns="http://www.w3.org/2000/svg"
 width="16.000000pt" height="16.000000pt" viewBox="0 0 16.000000 16.000000"
 preserveAspectRatio="xMidYMid meet">

<g transform="translate(0.000000,16.000000) scale(0.100000,-0.100000)"
fill="#000000" stroke="none">
<path d="M86 146 c38 -17 50 -34 35 -49 -13 -13 -15 -87 -2 -87 16 0 41 42 41
68 0 30 -52 82 -82 82 -20 -1 -19 -2 8 -14z"/>
<path d="M21 124 c-27 -35 -27 -57 4 -91 l24 -28 1 38 c0 20 -6 46 -13 57 -10
17 -9 22 3 30 8 5 12 12 8 15 -3 3 -15 -6 -27 -21z"/>
<path d="M70 60 c0 -5 5 -10 10 -10 6 0 10 5 10 10 0 6 -4 10 -10 10 -5 0 -10
-4 -10 -10z"/>
<path d="M70 10 c0 -5 5 -10 10 -10 6 0 10 5 10 10 0 6 -4 10 -10 10 -5 0 -10
-4 -10 -10z"/>
</g>
</svg>
