<?xml version="1.0" standalone="no"?>
<!DOCTYPE svg PUBLIC "-//W3C//DTD SVG 20010904//EN"
 "http://www.w3.org/TR/2001/REC-SVG-20010904/DTD/svg10.dtd">
<svg version="1.0" xmlns="http://www.w3.org/2000/svg"
 width="24.000000pt" height="24.000000pt" viewBox="0 0 24.000000 24.000000"
 preserveAspectRatio="xMidYMid meet">

<g transform="translate(0.000000,24.000000) scale(0.100000,-0.100000)"
fill="#000000" stroke="none">
<path d="M63 220 c-34 -21 -63 -66 -63 -100 0 -56 64 -120 120 -120 63 0 120
58 120 122 0 54 -66 118 -122 118 -13 0 -37 -9 -55 -20z m114 -41 c-3 -12 2
-20 14 -24 10 -4 22 -18 25 -32 12 -45 -6 -57 -91 -66 -43 -4 -79 -6 -81 -4
-2 1 -4 27 -6 57 l-3 55 43 1 c30 0 50 7 64 22 24 24 42 19 35 -9z"/>
</g>
</svg>
